<?xml version="1.0" standalone="no"?>
<!DOCTYPE svg PUBLIC "-//W3C//DTD SVG 20010904//EN"
 "http://www.w3.org/TR/2001/REC-SVG-20010904/DTD/svg10.dtd">
<svg version="1.0" xmlns="http://www.w3.org/2000/svg"
 width="467.000000pt" height="640.000000pt" viewBox="0 0 467.000000 640.000000"
 preserveAspectRatio="xMidYMid meet">
<metadata>
Created by potrace 1.12, written by Peter Selinger 2001-2015
</metadata>
<g transform="translate(0.000000,640.000000) scale(0.100000,-0.100000)"
fill="#000000" stroke="none">
<path d="M0 3200 l0 -3200 2335 0 2335 0 0 3200 0 3200 -2335 0 -2335 0 0
-3200z m2490 2546 c0 -8 15 -20 34 -26 19 -6 37 -17 40 -25 3 -9 19 -15 41
-15 20 0 46 -7 59 -15 13 -9 30 -14 37 -13 8 2 15 -7 17 -19 2 -13 7 -23 12
-23 20 0 40 13 40 26 0 22 22 42 35 32 48 -39 100 -76 105 -74 3 2 29 0 58 -3
47 -7 52 -6 52 12 0 15 5 18 23 14 12 -3 42 -11 67 -18 38 -9 70 -8 194 10
146 21 148 21 179 2 18 -10 47 -22 65 -26 35 -7 107 -71 154 -136 64 -87 126
-233 162 -381 20 -80 36 -156 36 -167 0 -12 14 -63 30 -113 31 -93 38 -152 20
-163 -6 -3 -58 -7 -118 -7 -72 -1 -112 -5 -122 -14 -9 -7 -33 -15 -54 -18 -22
-3 -42 -9 -45 -13 -9 -13 -61 -44 -61 -37 0 4 -8 0 -18 -9 -17 -15 -21 -15
-60 4 -24 12 -47 30 -53 40 -8 16 -20 19 -72 18 -34 -1 -69 -5 -78 -10 -10 -5
-43 -11 -75 -13 -33 -3 -79 -9 -104 -15 -25 -5 -106 -8 -182 -5 -96 3 -138 1
-143 -7 -5 -8 2 -9 24 -4 32 7 45 -10 16 -21 -24 -10 -17 -24 13 -25 l27 -1
-30 -13 c-25 -11 -27 -14 -12 -20 12 -5 14 -11 8 -19 -7 -8 -6 -20 2 -36 12
-24 16 -25 118 -26 130 0 141 -6 101 -48 -17 -17 -32 -40 -34 -51 -2 -13 -10
-19 -22 -17 -11 2 -37 -3 -60 -11 -23 -8 -108 -36 -189 -62 -113 -37 -147 -51
-142 -62 3 -8 5 -23 5 -34 0 -25 17 -24 84 7 49 22 60 24 91 14 19 -6 39 -9
44 -6 13 9 41 -4 41 -19 0 -6 -16 -28 -35 -48 -19 -20 -30 -39 -25 -42 6 -3
10 -11 10 -18 0 -8 -3 -8 -12 1 -9 9 -17 7 -35 -10 l-22 -21 -11 27 c-5 15
-10 31 -10 36 0 5 -17 13 -37 19 -21 5 -49 12 -63 16 -14 4 -56 12 -95 19 -38
7 -108 23 -155 35 -47 11 -167 41 -268 65 -178 43 -218 58 -206 77 3 5 7 31 8
58 2 26 7 58 11 70 3 11 2 21 -3 21 -12 0 -24 -29 -17 -40 3 -5 1 -11 -5 -15
-5 -3 -10 -15 -10 -26 0 -10 -5 -19 -11 -19 -7 0 -9 10 -5 25 7 28 4 30 -26
14 -25 -14 -33 -6 -18 20 9 18 7 22 -15 31 -26 10 -26 30 -1 30 8 0 16 14 20
31 7 34 29 35 34 2 6 -43 39 -34 102 28 57 56 75 89 47 89 -7 0 -18 -5 -25
-12 -16 -16 -37 4 -29 26 7 17 57 22 57 6 0 -6 13 4 29 22 29 32 27 64 -2 40
-17 -14 -27 -6 -27 22 -1 17 -8 13 -40 -24 -40 -45 -61 -50 -39 -8 7 12 14 34
16 48 10 76 17 102 29 107 8 3 14 13 14 22 0 9 6 23 12 29 10 10 10 17 0 33
-10 15 -10 28 -1 60 11 34 10 42 -4 56 -13 13 -19 14 -31 3 -13 -10 -16 -10
-16 3 0 27 12 47 24 41 6 -4 3 1 -6 11 -13 14 -14 22 -5 42 8 19 8 26 -2 33
-10 6 -7 12 13 25 14 10 25 23 24 29 -1 6 3 22 10 36 11 22 11 23 -1 8 -8 -11
-21 -15 -35 -11 -28 7 -28 15 1 50 12 15 33 53 46 83 80 182 72 172 166 234
28 18 68 51 90 74 24 27 45 40 55 37 10 -3 26 6 40 20 19 20 30 24 52 20 20
-5 32 -1 45 14 20 24 33 27 33 7z m1113 -1368 c12 -7 23 -14 25 -14 2 -1 -11
-22 -29 -48 -24 -34 -33 -59 -37 -101 -2 -30 -10 -59 -16 -62 -6 -4 -41 -8
-78 -9 -75 -2 -68 -9 -83 92 -6 37 -4 42 17 47 15 4 29 21 40 48 13 29 22 40
33 35 8 -3 15 -1 15 4 0 19 82 25 113 8z m-2353 -72 c14 -7 41 -22 60 -33 19
-11 56 -22 82 -25 36 -4 60 -16 107 -53 62 -49 65 -53 61 -92 -1 -13 1 -27 5
-32 8 -15 35 -1 35 18 1 20 74 -58 92 -100 15 -33 63 -55 84 -38 11 9 11 15
-1 32 -19 27 -19 37 0 37 8 0 15 -4 15 -10 0 -5 7 -10 15 -10 21 0 19 20 -10
74 -19 35 -21 46 -10 46 16 0 45 -49 45 -75 0 -8 4 -15 10 -15 5 0 8 17 7 37
l-2 37 46 -1 c25 -1 86 -15 136 -32 112 -37 272 -77 338 -84 28 -3 44 -3 38 0
-7 2 -13 9 -13 15 0 14 49 6 215 -33 206 -49 200 -46 200 -104 0 -47 -2 -50
-29 -55 -28 -5 -50 -30 -26 -30 12 0 40 -24 40 -34 0 -3 -6 -6 -14 -6 -17 0
-41 -28 -32 -37 3 -3 18 0 32 7 22 12 27 12 34 0 15 -24 11 -33 -7 -19 -16 11
-16 11 -5 -1 7 -8 16 -15 20 -16 16 -2 48 -18 54 -28 7 -11 11 -12 41 -15 7 0
22 -9 33 -20 11 -10 30 -22 42 -25 12 -4 22 -14 22 -22 0 -8 5 -14 10 -14 6 0
10 5 10 10 0 6 7 10 15 10 8 0 15 -9 15 -20 0 -11 4 -20 10 -20 5 0 7 -7 4
-15 -4 -10 0 -15 16 -15 17 0 20 -4 15 -21 -6 -17 -3 -20 14 -17 12 2 21 7 21
11 -1 5 14 27 34 51 27 34 34 50 32 78 -2 27 0 35 11 31 20 -8 46 17 33 32 -8
9 -6 14 7 17 10 3 27 22 38 44 11 21 28 50 38 63 9 13 17 30 17 38 0 7 11 30
23 51 13 20 27 48 30 62 12 45 73 100 111 100 42 0 100 -81 146 -204 21 -54
65 -110 81 -101 12 8 -1 36 -28 60 -14 11 -26 36 -30 59 -6 37 -5 38 18 31 41
-12 43 -11 59 35 16 49 56 100 77 100 29 0 4 -155 -32 -200 -24 -30 -33 -93
-24 -165 19 -149 20 -199 5 -219 -14 -17 -16 -17 -31 -3 -14 15 -19 15 -48 -2
-24 -13 -65 -21 -148 -26 -122 -7 -151 -12 -244 -44 -33 -11 -73 -23 -88 -26
l-28 -6 28 -23 c27 -22 126 -51 142 -41 5 2 23 0 42 -6 19 -6 49 -10 68 -10
18 1 39 -3 47 -9 10 -9 16 -4 28 23 17 43 20 44 85 53 l54 7 -7 -89 c-9 -107
-47 -201 -80 -196 -12 2 -27 -6 -37 -19 l-17 -22 -27 22 c-36 28 -90 25 -128
-6 -16 -13 -42 -23 -58 -23 -17 0 -39 -5 -50 -10 -13 -7 -31 -8 -54 -1 -20 5
-48 6 -67 1 -18 -5 -71 -16 -117 -25 -66 -13 -88 -22 -107 -43 l-23 -27 21
-18 c17 -14 30 -17 62 -11 23 4 79 8 126 10 259 8 308 20 398 96 18 15 42 28
54 28 19 0 20 -4 16 -47 -6 -58 -47 -193 -59 -193 -5 0 -9 4 -9 8 0 4 -11 9
-25 10 -14 1 -38 10 -53 21 -16 12 -53 21 -92 25 -64 6 -66 6 -65 -17 0 -13 7
-32 15 -42 14 -16 13 -17 -6 -11 -16 5 -23 2 -27 -14 -3 -11 -13 -23 -24 -27
-10 -4 -23 -14 -30 -22 -7 -9 -13 -11 -13 -6 0 6 -4 4 -9 -3 -5 -8 -24 -14
-44 -14 -21 0 -38 -6 -41 -14 -7 -19 -26 -18 -26 1 0 8 -7 15 -16 15 -12 0
-15 -6 -10 -25 4 -17 2 -27 -8 -31 -8 -3 -17 -13 -20 -21 -6 -13 -4 -14 9 -3
13 11 19 11 33 -3 12 -13 13 -17 3 -17 -11 0 -11 -3 0 -16 8 -10 24 -14 46
-12 18 2 33 1 33 -3 0 -10 90 -30 102 -23 6 4 24 8 39 9 53 5 169 109 208 188
24 49 29 24 5 -31 -8 -20 -26 -78 -39 -129 -35 -133 -85 -222 -101 -179 -8 22
-98 22 -139 0 -16 -9 -57 -17 -90 -19 -33 -1 -72 -6 -87 -10 -16 -4 -35 -2
-50 6 -12 7 -35 12 -50 10 -14 -1 -29 2 -33 8 -3 6 -21 11 -39 11 -34 0 -124
26 -141 41 -5 5 -19 9 -31 9 -11 0 -34 12 -49 26 -15 14 -34 23 -42 20 -8 -4
-17 4 -23 19 -6 17 -20 28 -40 31 -16 4 -30 12 -30 20 0 7 -9 16 -20 19 -25 8
-26 21 -2 34 14 9 12 10 -15 11 -37 0 -54 17 -21 22 13 2 24 11 26 23 2 11 10
27 18 36 11 12 11 18 2 27 -19 19 -28 14 -28 -12 0 -27 -15 -42 -25 -26 -3 5
-1 10 6 10 8 0 8 4 -2 16 -9 11 -22 14 -41 10 -15 -3 -28 -1 -28 4 0 6 9 10
20 10 11 0 20 4 20 10 0 5 -9 14 -20 20 -16 9 -20 8 -20 -5 0 -23 -24 -13 -28
12 -2 15 -10 20 -32 19 -17 -1 -30 -2 -30 -3 0 -1 4 -13 10 -27 8 -23 7 -26
-11 -26 -15 0 -19 5 -15 15 4 11 -2 15 -23 15 -16 0 -32 6 -34 13 -4 9 -8 9
-15 -2 -12 -16 -32 -6 -32 16 0 9 -6 13 -15 9 -18 -7 -57 6 -56 19 1 6 -11 10
-25 10 -14 1 -30 8 -35 17 -5 9 -21 19 -35 22 -15 4 -24 10 -20 13 3 4 -1 15
-10 25 -12 12 -25 16 -43 12 -23 -6 -24 -5 -8 7 16 13 15 16 -18 42 -19 15
-39 26 -44 23 -9 -6 -26 22 -23 37 1 4 -7 7 -18 7 -14 0 -21 -9 -26 -34 -7
-38 1 -60 18 -50 7 5 9 1 5 -9 -4 -10 -2 -16 6 -14 6 1 13 -8 15 -20 2 -13 10
-23 18 -23 8 0 14 -6 14 -13 0 -7 8 -22 18 -33 9 -10 27 -40 40 -66 13 -27 30
-48 38 -48 8 0 14 -8 14 -17 0 -10 7 -31 16 -48 8 -16 13 -37 11 -47 -3 -10
-1 -18 4 -18 5 0 9 5 9 10 0 6 5 10 10 10 6 0 10 -14 10 -30 0 -24 6 -33 28
-42 26 -11 26 -12 5 -15 -13 -3 -23 -8 -23 -13 0 -5 6 -7 13 -4 7 2 20 -9 30
-26 10 -16 22 -30 28 -30 5 0 9 -8 9 -17 1 -19 23 -53 34 -53 4 0 22 -16 40
-35 19 -19 41 -35 50 -35 11 0 16 -9 16 -30 0 -32 14 -40 24 -14 5 14 9 14 22
3 14 -11 14 -14 1 -24 -9 -6 -15 -18 -15 -26 3 -46 -3 -59 -23 -56 -12 1 -24
-4 -27 -12 -3 -10 1 -12 17 -8 25 6 40 -10 17 -19 -18 -7 -22 -34 -6 -34 6 0
10 -7 10 -15 0 -7 6 -18 13 -22 16 -10 37 -49 37 -68 0 -8 -8 -23 -17 -33 -10
-9 -25 -29 -34 -42 -15 -24 -18 -24 -45 -10 -16 8 -65 47 -108 87 -44 40 -85
73 -91 73 -6 0 -36 22 -65 50 -29 27 -57 50 -61 50 -4 0 -14 6 -21 13 -7 6
-35 23 -62 37 -26 14 -58 34 -69 46 -12 11 -40 33 -62 49 -22 16 -69 56 -105
90 -36 33 -88 79 -115 103 -49 42 -58 55 -108 154 -13 26 -29 54 -36 62 -18
22 14 132 40 139 16 4 19 15 19 66 0 46 4 63 15 67 12 5 13 10 4 20 -7 8 -8
25 -4 41 4 16 9 39 12 53 2 13 8 29 14 36 5 6 6 14 3 17 -3 3 -2 11 2 19 4 7
8 23 8 36 1 23 3 24 99 27 79 2 97 0 97 -12 0 -10 6 -8 22 6 12 12 30 23 40
27 24 7 23 21 -2 29 -11 4 -18 10 -15 15 8 12 -21 138 -35 155 -11 13 -16 12
-40 -8 -36 -31 -110 -51 -156 -44 -46 8 -155 73 -215 129 -47 44 -109 128
-109 147 0 6 -5 11 -10 11 -12 0 -95 172 -105 216 -4 23 -2 33 9 37 9 4 19 24
22 47 4 22 10 40 14 40 4 0 11 12 14 26 4 14 18 37 31 50 24 24 26 24 55 9 16
-9 30 -20 30 -25 0 -5 16 -14 35 -21 44 -16 44 -30 3 -48 -61 -26 -95 -70
-102 -133 -4 -35 4 -45 65 -78 l36 -19 11 23 c8 19 61 56 79 56 1 0 3 -13 3
-30 l0 -30 64 3 64 2 5 55 c5 45 11 59 36 81 17 14 31 31 31 39 0 21 -62 96
-90 108 -14 7 -49 25 -78 42 -66 38 -173 75 -240 85 -42 5 -59 3 -101 -18 -49
-23 -51 -23 -51 -4 0 28 35 82 67 103 54 34 135 39 193 10z m1726 -199 c7 -18
17 -31 24 -29 7 1 19 -3 27 -10 13 -10 13 -14 -3 -25 -10 -7 -28 -13 -41 -13
-13 0 -26 -6 -29 -14 -7 -19 13 -56 31 -56 8 0 15 -7 15 -15 0 -9 -7 -15 -16
-13 -10 2 -19 -3 -21 -9 -3 -8 4 -13 16 -13 12 0 21 -5 21 -11 0 -5 -4 -8 -8
-5 -4 2 -14 1 -22 -5 -12 -7 -12 -9 3 -9 11 0 17 -5 14 -12 -2 -7 -11 -12 -19
-12 -10 1 -14 -5 -11 -16 3 -12 12 -16 29 -12 19 3 24 0 24 -17 0 -27 16 -27
30 -1 6 11 17 20 25 20 7 0 17 10 21 22 4 12 18 31 33 43 27 21 29 22 62 24
11 0 18 5 14 11 -3 5 -12 7 -20 3 -19 -7 -20 23 -1 34 7 4 16 15 19 23 4 12 6
11 6 -2 1 -28 21 -21 21 8 0 14 4 23 10 19 6 -3 10 -16 10 -28 0 -15 3 -18 11
-10 8 8 8 17 -1 33 -9 17 -9 21 0 15 6 -4 15 -18 20 -31 8 -20 14 -23 41 -17
l32 6 -6 -55 c-18 -177 -219 -340 -354 -287 -23 9 -25 12 -11 18 15 6 15 7 0
26 -9 12 -25 24 -34 28 -26 9 -23 54 4 68 19 10 19 12 5 21 -10 5 -17 15 -17
23 0 7 -9 16 -19 20 -37 11 -35 98 3 110 18 6 19 8 4 12 -25 6 -22 32 5 42 18
8 19 10 6 16 -18 7 -14 37 10 99 13 32 21 29 37 -17z m-226 -2030 c0 -21 -51
-86 -116 -148 -138 -131 -160 -152 -181 -166 -51 -34 -48 22 5 99 36 51 82 96
137 132 22 14 60 42 85 61 48 37 70 44 70 22z"/>
</g>
</svg>
